<svg id="Capa_1" enable-background="new 0 0 512 512" height="512" viewBox="0 0 512 512" width="512" xmlns="http://www.w3.org/2000/svg" xmlns:xlink="http://www.w3.org/1999/xlink"><linearGradient id="SVGID_1_" gradientUnits="userSpaceOnUse" x1="256" x2="256" y1="512" y2="0"><stop offset="0" stop-color="#5558ff"/><stop offset="1" stop-color="#00c0ff"/></linearGradient><g><g><path d="m416.234 129.3 20.306-22.842 11.223 9.976c6.164 5.5 15.665 4.965 21.167-1.245 5.508-6.182 4.951-15.674-1.245-21.167l-44.854-39.873c-6.211-5.522-15.703-4.966-21.167 1.245-5.508 6.182-4.951 15.674 1.245 21.167l11.221 9.974-20.392 22.938c-26.798-20.84-58.281-35.917-92.738-42.937v-36.536h15c8.291 0 15-6.709 15-15s-6.709-15-15-15h-120c-8.291 0-15 6.709-15 15s6.709 15 15 15h15v36.536c-34.457 7.02-65.94 22.097-92.737 42.936l-20.393-22.938 11.221-9.974c6.196-5.493 6.753-14.985 1.245-21.167-5.493-6.211-14.985-6.768-21.167-1.245l-44.854 39.873c-6.196 5.493-6.753 14.985-1.245 21.167 5.501 6.209 15.001 6.747 21.167 1.245l11.223-9.976 20.306 22.843c-39.997 40.637-64.766 96.308-64.766 157.7 0 124.072 100.928 225 225 225s225-100.928 225-225c0-61.392-24.769-117.063-64.766-157.7zm-175.234-99.3h30v32.76c-4.98-.331-9.937-.76-15-.76s-10.02.428-15 .76zm15 452c-107.52 0-195-87.48-195-195s87.48-195 195-195 195 87.48 195 195-87.48 195-195 195zm0-360c-90.981 0-165 74.019-165 165s74.019 165 165 165 165-74.019 165-165-74.019-165-165-165zm15 298.484v-13.484c0-8.291-6.709-15-15-15s-15 6.709-15 15v13.484c-62.325-7.011-111.473-56.159-118.484-118.484h13.484c8.291 0 15-6.709 15-15s-6.709-15-15-15h-13.484c7.011-62.325 56.158-111.473 118.484-118.484v13.484c0 8.291 6.709 15 15 15s15-6.709 15-15v-13.484c62.325 7.011 111.473 56.158 118.484 118.484h-13.484c-8.291 0-15 6.709-15 15s6.709 15 15 15h13.484c-7.011 62.325-56.159 111.473-118.484 118.484zm34.395-204.089-60 60c-5.859 5.859-5.859 15.352 0 21.211s15.351 5.859 21.211 0l60-60c5.859-5.859 5.859-15.352 0-21.211s-15.352-5.86-21.211 0z" fill="url(#SVGID_1_)"/></g></g></svg>